<svg width="264" height="199" viewBox="0 0 264 199" fill="none" xmlns="http://www.w3.org/2000/svg">
<g opacity="0.1">
<circle cx="2.5" cy="2.5" r="2.5" fill="black"/>
<circle cx="2.5" cy="24.5" r="2.5" fill="black"/>
<circle cx="24.5" cy="2.5" r="2.5" fill="black"/>
<circle cx="24.5" cy="24.5" r="2.5" fill="black"/>
<circle cx="45.5" cy="2.5" r="2.5" fill="black"/>
<circle cx="45.5" cy="24.5" r="2.5" fill="black"/>
<circle cx="67.5" cy="2.5" r="2.5" fill="black"/>
<circle cx="67.5" cy="24.5" r="2.5" fill="black"/>
<circle cx="88.5" cy="2.5" r="2.5" fill="black"/>
<circle cx="88.5" cy="24.5" r="2.5" fill="black"/>
<circle cx="110.5" cy="2.5" r="2.5" fill="black"/>
<circle cx="110.5" cy="24.5" r="2.5" fill="black"/>
<circle cx="132.5" cy="2.5" r="2.5" fill="black"/>
<circle cx="132.5" cy="24.5" r="2.5" fill="black"/>
<circle cx="153.5" cy="2.5" r="2.5" fill="black"/>
<circle cx="153.5" cy="24.5" r="2.5" fill="black"/>
<circle cx="175.5" cy="2.5" r="2.5" fill="black"/>
<circle cx="175.5" cy="24.5" r="2.5" fill="black"/>
<circle cx="196.5" cy="2.5" r="2.5" fill="black"/>
<circle cx="196.5" cy="24.5" r="2.5" fill="black"/>
<circle cx="218.5" cy="2.5" r="2.5" fill="black"/>
<circle cx="218.5" cy="24.5" r="2.5" fill="black"/>
<circle cx="239.5" cy="2.5" r="2.5" fill="black"/>
<circle cx="239.5" cy="24.5" r="2.5" fill="black"/>
<circle cx="261.5" cy="2.5" r="2.5" fill="black"/>
<circle cx="261.5" cy="24.5" r="2.5" fill="black"/>
<circle cx="2.5" cy="45.5" r="2.5" fill="black"/>
<circle cx="24.5" cy="45.5" r="2.5" fill="black"/>
<circle cx="45.5" cy="45.5" r="2.5" fill="black"/>
<circle cx="67.5" cy="45.5" r="2.5" fill="black"/>
<circle cx="88.5" cy="45.5" r="2.5" fill="black"/>
<circle cx="110.5" cy="45.5" r="2.5" fill="black"/>
<circle cx="132.5" cy="45.5" r="2.5" fill="black"/>
<circle cx="153.5" cy="45.5" r="2.5" fill="black"/>
<circle cx="175.5" cy="45.5" r="2.5" fill="black"/>
<circle cx="196.5" cy="45.5" r="2.5" fill="black"/>
<circle cx="218.5" cy="45.5" r="2.5" fill="black"/>
<circle cx="239.5" cy="45.5" r="2.5" fill="black"/>
<circle cx="261.5" cy="45.5" r="2.5" fill="black"/>
<circle cx="2.5" cy="67.5" r="2.5" fill="black"/>
<circle cx="24.5" cy="67.5" r="2.5" fill="black"/>
<circle cx="45.5" cy="67.5" r="2.5" fill="black"/>
<circle cx="67.5" cy="67.5" r="2.5" fill="black"/>
<circle cx="88.5" cy="67.5" r="2.5" fill="black"/>
<circle cx="110.5" cy="67.5" r="2.5" fill="black"/>
<circle cx="132.5" cy="67.5" r="2.5" fill="black"/>
<circle cx="153.5" cy="67.5" r="2.5" fill="black"/>
<circle cx="175.5" cy="67.5" r="2.5" fill="black"/>
<circle cx="196.5" cy="67.5" r="2.5" fill="black"/>
<circle cx="218.5" cy="67.5" r="2.5" fill="black"/>
<circle cx="239.5" cy="67.5" r="2.5" fill="black"/>
<circle cx="261.5" cy="67.5" r="2.5" fill="black"/>
<circle cx="2.5" cy="88.5" r="2.5" fill="black"/>
<circle cx="24.5" cy="88.5" r="2.5" fill="black"/>
<circle cx="45.5" cy="88.5" r="2.5" fill="black"/>
<circle cx="67.5" cy="88.5" r="2.5" fill="black"/>
<circle cx="88.5" cy="88.5" r="2.5" fill="black"/>
<circle cx="110.5" cy="88.5" r="2.5" fill="black"/>
<circle cx="132.5" cy="88.5" r="2.5" fill="black"/>
<circle cx="153.5" cy="88.5" r="2.5" fill="black"/>
<circle cx="175.5" cy="88.5" r="2.5" fill="black"/>
<circle cx="196.5" cy="88.5" r="2.5" fill="black"/>
<circle cx="218.5" cy="88.5" r="2.5" fill="black"/>
<circle cx="239.5" cy="88.5" r="2.5" fill="black"/>
<circle cx="261.5" cy="88.5" r="2.5" fill="black"/>
<circle cx="2.5" cy="110.5" r="2.5" fill="black"/>
<circle cx="24.5" cy="110.5" r="2.5" fill="black"/>
<circle cx="45.5" cy="110.5" r="2.5" fill="black"/>
<circle cx="67.5" cy="110.5" r="2.5" fill="black"/>
<circle cx="88.5" cy="110.5" r="2.5" fill="black"/>
<circle cx="110.5" cy="110.5" r="2.5" fill="black"/>
<circle cx="132.5" cy="110.5" r="2.5" fill="black"/>
<circle cx="153.5" cy="110.5" r="2.5" fill="black"/>
<circle cx="175.5" cy="110.5" r="2.5" fill="black"/>
<circle cx="196.5" cy="110.5" r="2.5" fill="black"/>
<circle cx="218.5" cy="110.5" r="2.5" fill="black"/>
<circle cx="239.5" cy="110.5" r="2.5" fill="black"/>
<circle cx="261.5" cy="110.5" r="2.5" fill="black"/>
<circle cx="2.5" cy="131.5" r="2.5" fill="black"/>
<circle cx="24.5" cy="131.5" r="2.5" fill="black"/>
<circle cx="45.5" cy="131.5" r="2.5" fill="black"/>
<circle cx="67.5" cy="131.5" r="2.5" fill="black"/>
<circle cx="88.5" cy="131.5" r="2.5" fill="black"/>
<circle cx="110.5" cy="131.5" r="2.5" fill="black"/>
<circle cx="132.5" cy="131.5" r="2.5" fill="black"/>
<circle cx="153.5" cy="131.5" r="2.5" fill="black"/>
<circle cx="175.5" cy="131.5" r="2.5" fill="black"/>
<circle cx="196.5" cy="131.5" r="2.5" fill="black"/>
<circle cx="218.5" cy="131.5" r="2.5" fill="black"/>
<circle cx="239.5" cy="131.5" r="2.5" fill="black"/>
<circle cx="261.5" cy="131.5" r="2.5" fill="black"/>
<circle cx="2.5" cy="153.5" r="2.5" fill="black"/>
<circle cx="24.5" cy="153.5" r="2.5" fill="black"/>
<circle cx="45.5" cy="153.5" r="2.5" fill="black"/>
<circle cx="67.5" cy="153.5" r="2.5" fill="black"/>
<circle cx="88.5" cy="153.5" r="2.5" fill="black"/>
<circle cx="110.5" cy="153.5" r="2.5" fill="black"/>
<circle cx="132.5" cy="153.5" r="2.5" fill="black"/>
<circle cx="153.5" cy="153.5" r="2.5" fill="black"/>
<circle cx="175.5" cy="153.5" r="2.5" fill="black"/>
<circle cx="196.5" cy="153.5" r="2.5" fill="black"/>
<circle cx="218.5" cy="153.5" r="2.5" fill="black"/>
<circle cx="239.5" cy="153.5" r="2.5" fill="black"/>
<circle cx="261.5" cy="153.5" r="2.5" fill="black"/>
<circle cx="2.5" cy="174.5" r="2.5" fill="black"/>
<circle cx="24.5" cy="174.5" r="2.5" fill="black"/>
<circle cx="45.5" cy="174.5" r="2.5" fill="black"/>
<circle cx="67.5" cy="174.5" r="2.5" fill="black"/>
<circle cx="88.5" cy="174.5" r="2.5" fill="black"/>
<circle cx="110.5" cy="174.5" r="2.5" fill="black"/>
<circle cx="132.5" cy="174.5" r="2.5" fill="black"/>
<circle cx="153.5" cy="174.5" r="2.5" fill="black"/>
<circle cx="175.5" cy="174.5" r="2.5" fill="black"/>
<circle cx="196.5" cy="174.5" r="2.5" fill="black"/>
<circle cx="218.5" cy="174.5" r="2.5" fill="black"/>
<circle cx="239.5" cy="174.5" r="2.5" fill="black"/>
<circle cx="261.5" cy="174.5" r="2.5" fill="black"/>
<circle cx="2.5" cy="196.5" r="2.5" fill="black"/>
<circle cx="24.5" cy="196.5" r="2.5" fill="black"/>
<circle cx="45.5" cy="196.5" r="2.5" fill="black"/>
<circle cx="67.5" cy="196.5" r="2.5" fill="black"/>
<circle cx="88.5" cy="196.5" r="2.5" fill="black"/>
<circle cx="110.5" cy="196.5" r="2.5" fill="black"/>
<circle cx="132.5" cy="196.5" r="2.5" fill="black"/>
<circle cx="153.5" cy="196.5" r="2.5" fill="black"/>
<circle cx="175.5" cy="196.5" r="2.5" fill="black"/>
<circle cx="196.5" cy="196.5" r="2.5" fill="black"/>
<circle cx="218.5" cy="196.5" r="2.5" fill="black"/>
<circle cx="239.5" cy="196.5" r="2.5" fill="black"/>
<circle cx="261.5" cy="196.5" r="2.5" fill="black"/>
</g>
</svg>
