<svg width="12" height="12" viewBox="0 0 12 12" fill="none" xmlns="http://www.w3.org/2000/svg">
<path fill-rule="evenodd" clip-rule="evenodd" d="M8.93472 8.27504L11.8633 11.2036C12.0456 11.3858 12.0456 11.6811 11.8634 11.8633C11.7722 11.9545 11.6528 12 11.5334 12C11.414 12 11.2946 11.9545 11.2035 11.8633L8.27489 8.93474C7.39951 9.66269 6.27537 10.1012 5.05064 10.1012C2.2657 10.1012 0 7.83561 0 5.05078C0 2.26577 2.2657 0 5.05064 0C7.83552 0 10.1012 2.26577 10.1012 5.05078C10.1012 6.27558 9.66266 7.39966 8.93472 8.27504ZM5.05064 0.933107C2.78021 0.933107 0.933104 2.78028 0.933104 5.05078C0.933104 7.32109 2.78021 9.16808 5.05064 9.16808C7.32101 9.16808 9.16805 7.32109 9.16805 5.05078C9.16805 2.78028 7.32101 0.933107 5.05064 0.933107Z" fill="#EEEEEE"/>
</svg>
